<svg xmlns="http://www.w3.org/2000/svg" width="16" height="16" viewBox="0 0 16 16">
  <path fill="#000000" fill-rule="evenodd" d="M14.037037,8.82651072 L3.96296296,8.82651072 C4.10851275,10.3651799 4.63352374,11.5347588 5.5380117,12.3352827 C6.44249965,13.1358065 7.5393048,13.5360624 8.82846004,13.5360624 C10.0552368,13.5360624 11.2715989,13.1514009 12.4775828,12.3820663 L13.5692008,14.3781676 C11.9473603,15.4593946 10.2319779,16 8.42300195,16 C7.02988257,16 5.77193544,15.677716 4.64912281,15.0331384 C3.52631018,14.3885608 2.63743018,13.4632939 1.98245614,12.2573099 C1.32748211,11.051326 1,9.63743501 1,8.01559454 C1,6.4145469 1.32748211,5.00585404 1.98245614,3.78947368 C2.63743018,2.57309333 3.4951214,1.63743018 4.55555556,0.98245614 C5.61598971,0.327482105 6.74918175,0 7.95516569,0 C9.93048421,0 11.458734,0.649766082 12.539961,1.94931774 C13.621188,3.2488694 14.1617934,5.00063875 14.1617934,7.20467836 C14.1617934,7.7868775 14.1202083,8.32748288 14.037037,8.82651072 Z M11.417154,6.64327485 C11.417154,5.31253396 11.1260588,4.28330448 10.5438596,3.55555556 C9.96166051,2.82780663 9.11956366,2.46393762 8.01754386,2.46393762 C7.06107384,2.46393762 6.20858074,2.81741037 5.46003899,3.52436647 C4.71149723,4.23132257 4.2332694,5.2709483 4.02534113,6.64327485 L11.417154,6.64327485 Z"/>
</svg>
