<?xml version="1.0" encoding="UTF-8" standalone="no"?>
<svg width="16px" height="16px" viewBox="0 0 16 16" version="1.1" xmlns="http://www.w3.org/2000/svg" xmlns:xlink="http://www.w3.org/1999/xlink">
    <!-- Generator: Sketch 3.7 (28169) - http://www.bohemiancoding.com/sketch -->
    <title>safari-pinned-tab</title>
    <desc>Created with Sketch.</desc>
    <defs></defs>
    <g id="apple" stroke="none" stroke-width="1" fill="none" fill-rule="evenodd">
        <g id="safari-pinned-tab" fill="#333333">
            <g id="logo" transform="translate(-1.000000, 0.000000)">
                <g id="kettle" transform="translate(0.093333, 0.000000)">
                    <path d="M11.8321754,8.75580957 C12.001624,8.66863029 12.2565827,8.44117514 12.3390887,7.85235051 C12.5086675,6.64605246 13.7874589,6.15934188 13.8417755,6.13924047 C13.9014382,6.11742831 13.9673023,6.12256058 14.0224743,6.1542096 C14.0774324,6.18564478 14.1157106,6.23974749 14.1266167,6.30219015 L14.2606973,7.05449587 C14.2786603,7.15521673 14.2228468,7.25444068 14.127472,7.29143582 C14.0947538,7.30469419 13.2975407,7.63807811 13.4346151,8.72676157 C13.5272099,9.46131818 13.393557,10.0153898 13.0375055,10.3744351 C12.714148,10.7006677 12.2926896,10.7733154 12.0416974,10.7848718 C12.0310485,10.8932924 12.0169751,11.0019156 11.9995032,11.1102748 C11.9826095,11.2139895 11.8932224,11.2903321 11.7882247,11.2903321 L4.62036353,11.2903321 C4.51557962,11.2903321 4.42619252,11.2144172 4.40929879,11.1107025 C4.36481909,10.8365536 4.34215155,10.5589831 4.34215155,10.2852619 C4.34215155,9.09068244 4.7514659,8.00436771 5.41672127,7.20328878 C5.41679274,5.04692707 5.75464128,3.05175042 8.20418717,3.05175042 C10.7759221,3.05175042 10.9915878,5.19425334 10.9916531,7.20306086 C11.3579253,7.64403573 11.6466277,8.17146067 11.8321754,8.75580957 Z M7.54235151,5.89358515 C7.4772156,5.78114596 7.43990615,5.65065865 7.43990615,5.51160622 C7.43990615,5.09011828 7.78291308,4.7473252 8.20418717,4.7473252 C8.62546127,4.7473252 8.9684682,5.09033213 8.9684682,5.51160622 C8.9684682,5.65061868 8.93114232,5.78110882 8.86597984,5.89356434 C9.49516392,6.01945368 10.07264,6.32163799 10.5586787,6.75426801 C10.5066977,4.6723724 10.0487667,3.47943986 8.20418717,3.47943986 C6.38023575,3.47943986 5.90693238,4.77074323 5.85047478,6.75372696 C6.33633769,6.32140988 6.91352306,6.01943449 7.54235151,5.89358515 Z M8.90666667,16 C13.3249447,16 16.9066667,12.418278 16.9066667,8 C16.9066667,3.581722 13.3249447,0 8.90666667,0 C4.48838867,0 0.906666667,3.581722 0.906666667,8 C0.906666667,12.418278 4.48838867,16 8.90666667,16 Z" id="Oval-2"></path>
                </g>
            </g>
        </g>
    </g>
</svg>