<svg width="500" height="500" viewBox="0 0 500 500" xmlns="http://www.w3.org/2000/svg" xmlns:xlink="http://www.w3.org/1999/xlink" style="background:#fefbef"><title>square</title><defs><path d="M324.86 122.848c0 58.327-72.691 105.613-162.36 105.613C72.831 228.461.14 181.175.14 122.848v-16.646h324.72v16.646z" id="a"/><filter x="-50%" y="-50%" width="200%" height="200%" filterUnits="objectBoundingBox" id="b"><feGaussianBlur stdDeviation="2.5" in="SourceAlpha" result="shadowBlurInner1"/><feOffset dy="1" in="shadowBlurInner1" result="shadowOffsetInner1"/><feComposite in="shadowOffsetInner1" in2="SourceAlpha" operator="arithmetic" k2="-1" k3="1" result="shadowInnerInner1"/><feColorMatrix values="0 0 0 0 0 0 0 0 0 0 0 0 0 0 0 0 0 0 0.5 0" in="shadowInnerInner1"/></filter><path d="M270.716 149.066c0 48.606-60.576 88.004-135.3 88.004C60.694 237.07.118 197.672.118 149.066V88.694h270.6v60.372z" id="c"/><filter x="-50%" y="-50%" width="200%" height="200%" filterUnits="objectBoundingBox" id="d"><feGaussianBlur stdDeviation="3.5" in="SourceAlpha" result="shadowBlurInner1"/><feOffset dy="1" in="shadowBlurInner1" result="shadowOffsetInner1"/><feComposite in="shadowOffsetInner1" in2="SourceAlpha" operator="arithmetic" k2="-1" k3="1" result="shadowInnerInner1"/><feColorMatrix values="0 0 0 0 0.6 0 0 0 0 0.1497 0 0 0 0 0.126 0 0 0 1 0" in="shadowInnerInner1"/></filter><ellipse id="e" cx="135.417" cy="88.694" rx="135.3" ry="88.008"/><filter x="-50%" y="-50%" width="200%" height="200%" filterUnits="objectBoundingBox" id="f"><feGaussianBlur stdDeviation="16.5" in="SourceAlpha" result="shadowBlurInner1"/><feOffset dy="1" in="shadowBlurInner1" result="shadowOffsetInner1"/><feComposite in="shadowOffsetInner1" in2="SourceAlpha" operator="arithmetic" k2="-1" k3="1" result="shadowInnerInner1"/><feColorMatrix values="0 0 0 0 1 0 0 0 0 0.338189105 0 0 0 0 0.299873737 0 0 0 1 0" in="shadowInnerInner1"/></filter><path d="M143.938 91.424c1.244-7.76 1.37-11.957.868-20.486-.814-10.35 6.684-16.607 16.594-17.282-10.422-.659-18.411-6.525-19.29-17.28-.877-8.53-1.712-12.722-4.302-20.487-2.003-6.117-8.696-7.474-16.22-7.474A80.46 80.46 0 0 0 118.09.54c12.549-.11 27.22 3.843 32.8 16.405 3.098 7.35 4.143 11.294 5.349 19.309 1.475 11.153 14.481 12.3 23.474 12.073a64.663 64.663 0 0 1 1.386 10.66c-7.912-.541-22.294.85-21.388 11.958.452 8.017.25 11.962-1.236 19.318-3.274 14.576-22.314 16.629-34.324 16.512a69.964 69.964 0 0 0 2.633-7.878c8.922 0 16.25-1.463 17.153-7.474z" id="g"/><filter x="-50%" y="-50%" width="200%" height="200%" filterUnits="objectBoundingBox" id="h"><feMorphology radius="1" in="SourceAlpha" result="shadowSpreadInner1"/><feOffset dy="2" in="shadowSpreadInner1" result="shadowOffsetInner1"/><feComposite in="shadowOffsetInner1" in2="SourceAlpha" operator="arithmetic" k2="-1" k3="1" result="shadowInnerInner1"/><feColorMatrix values="0 0 0 0 0.7 0 0 0 0 0.17465 0 0 0 0 0.147 0 0 0 1 0" in="shadowInnerInner1" result="shadowMatrixInner1"/><feMorphology radius="1" in="SourceAlpha" result="shadowSpreadInner2"/><feOffset dy="1" in="shadowSpreadInner2" result="shadowOffsetInner2"/><feComposite in="shadowOffsetInner2" in2="SourceAlpha" operator="arithmetic" k2="-1" k3="1" result="shadowInnerInner2"/><feColorMatrix values="0 0 0 0 0.701960784 0 0 0 0 0.176470588 0 0 0 0 0.145098039 0 0 0 1 0" in="shadowInnerInner2" result="shadowMatrixInner2"/><feMorphology radius="1" in="SourceAlpha" result="shadowSpreadInner3"/><feOffset dy="1" in="shadowSpreadInner3" result="shadowOffsetInner3"/><feComposite in="shadowOffsetInner3" in2="SourceAlpha" operator="arithmetic" k2="-1" k3="1" result="shadowInnerInner3"/><feColorMatrix values="0 0 0 0 0.701960784 0 0 0 0 0.176470588 0 0 0 0 0.145098039 0 0 0 1 0" in="shadowInnerInner3" result="shadowMatrixInner3"/><feMerge><feMergeNode in="shadowMatrixInner1"/><feMergeNode in="shadowMatrixInner2"/><feMergeNode in="shadowMatrixInner3"/></feMerge></filter><path d="M26.046 91.424c1.244-7.76 1.37-11.957.868-20.486-.814-10.35 6.684-16.607 16.594-17.282-10.423-.659-18.411-6.525-19.29-17.28-.877-8.53-1.713-12.722-4.302-20.487-2.004-6.117-8.696-7.474-16.22-7.474A80.461 80.461 0 0 0 .198.54C12.747.431 27.42 4.384 33 16.946c3.098 7.35 4.143 11.294 5.349 19.309 1.475 11.153 14.481 12.3 23.474 12.073a64.663 64.663 0 0 1 1.386 10.66c-7.912-.541-22.295.85-21.388 11.958.452 8.017.25 11.962-1.236 19.318C37.31 104.84 18.27 106.893 6.26 106.776a69.964 69.964 0 0 0 2.633-7.878c8.921 0 16.25-1.463 17.153-7.474z" id="i"/><filter x="-50%" y="-50%" width="200%" height="200%" filterUnits="objectBoundingBox" id="j"><feMorphology radius="1" in="SourceAlpha" result="shadowSpreadInner1"/><feOffset dy="2" in="shadowSpreadInner1" result="shadowOffsetInner1"/><feComposite in="shadowOffsetInner1" in2="SourceAlpha" operator="arithmetic" k2="-1" k3="1" result="shadowInnerInner1"/><feColorMatrix values="0 0 0 0 0.7 0 0 0 0 0.17465 0 0 0 0 0.147 0 0 0 1 0" in="shadowInnerInner1" result="shadowMatrixInner1"/><feMorphology radius="1" in="SourceAlpha" result="shadowSpreadInner2"/><feOffset dy="1" in="shadowSpreadInner2" result="shadowOffsetInner2"/><feComposite in="shadowOffsetInner2" in2="SourceAlpha" operator="arithmetic" k2="-1" k3="1" result="shadowInnerInner2"/><feColorMatrix values="0 0 0 0 0.701960784 0 0 0 0 0.176470588 0 0 0 0 0.145098039 0 0 0 1 0" in="shadowInnerInner2" result="shadowMatrixInner2"/><feMorphology radius="1" in="SourceAlpha" result="shadowSpreadInner3"/><feOffset dy="1" in="shadowSpreadInner3" result="shadowOffsetInner3"/><feComposite in="shadowOffsetInner3" in2="SourceAlpha" operator="arithmetic" k2="-1" k3="1" result="shadowInnerInner3"/><feColorMatrix values="0 0 0 0 0.701960784 0 0 0 0 0.176470588 0 0 0 0 0.145098039 0 0 0 1 0" in="shadowInnerInner3" result="shadowMatrixInner3"/><feMerge><feMergeNode in="shadowMatrixInner1"/><feMergeNode in="shadowMatrixInner2"/><feMergeNode in="shadowMatrixInner3"/></feMerge></filter></defs><g fill="none" fill-rule="evenodd"><g transform="translate(88 156.22)"><use fill="gray" xlink:href="#a"/><use fill="#000" filter="url(#b)" xlink:href="#a"/><ellipse fill="#CCC" cx="162.5" cy="106.202" rx="162.36" ry="105.609"/></g><g transform="translate(115.083 106)"><use fill="#CC332B" xlink:href="#c"/><use fill="#000" filter="url(#d)" xlink:href="#c"/></g><g transform="translate(115.083 106)"><use fill="#FF4136" xlink:href="#e"/><use fill="#000" filter="url(#f)" xlink:href="#e"/></g><g transform="translate(159.691 133.103)"><use fill="#CC332B" xlink:href="#g"/><use fill="#000" filter="url(#h)" xlink:href="#g"/></g><g transform="matrix(-1 0 0 1 223.098 133.103)"><use fill="#CC332B" xlink:href="#i"/><use fill="#000" filter="url(#j)" xlink:href="#i"/></g></g></svg>