<?xml version="1.0" encoding="UTF-8" standalone="no"?>
<svg width="375px" height="100px" viewBox="0 0 375 100" version="1.1" xmlns="http://www.w3.org/2000/svg" xmlns:xlink="http://www.w3.org/1999/xlink">
    <!-- Generator: Sketch 3.7 (28169) - http://www.bohemiancoding.com/sketch -->
    <title>logotype</title>
    <desc>Created with Sketch.</desc>
    <defs></defs>
    <g id="logo" stroke="none" stroke-width="1" fill="none" fill-rule="evenodd">
        <g id="logotype">
            <g id="lockup">
                <path d="M120,60.5835189 C120,61.1447661 120.44098,61.5857461 121.002227,61.5857461 C121.563474,61.5857461 121.964365,61.1447661 121.964365,60.5835189 L121.964365,57.0155902 C123.648107,59.5812918 126.293987,61.9064588 130.383073,61.9064588 C135.314031,61.9064588 140.325167,57.857461 140.325167,51.2026726 L140.325167,51.1224944 C140.325167,44.467706 135.314031,40.4988864 130.383073,40.4988864 C126.334076,40.4988864 123.728285,42.8641425 121.964365,45.5501114 L121.964365,33.0022272 C121.964365,32.4008909 121.523385,32 120.962138,32 C120.400891,32 120,32.4008909 120,33.0022272 L120,60.5835189 Z M130.182628,60.0222717 C125.933185,60.0222717 121.844098,56.4944321 121.844098,51.2427617 L121.844098,51.1625835 C121.844098,45.9510022 125.933185,42.3830735 130.182628,42.3830735 C134.47216,42.3830735 138.200445,45.830735 138.200445,51.2026726 L138.200445,51.2828508 C138.200445,56.7750557 134.632517,60.0222717 130.182628,60.0222717 L130.182628,60.0222717 Z M158.650891,61.9064588 C164.744432,61.9064588 169.194321,56.935412 169.194321,51.2026726 L169.194321,51.1224944 C169.194321,45.389755 164.784521,40.4988864 158.731069,40.4988864 C152.637528,40.4988864 148.187639,45.4699332 148.187639,51.2026726 L148.187639,51.2828508 C148.187639,57.0155902 152.597439,61.9064588 158.650891,61.9064588 L158.650891,61.9064588 Z M158.731069,60.0623608 C154.000557,60.0623608 150.312361,56.1336303 150.312361,51.2026726 L150.312361,51.1224944 C150.312361,46.311804 153.800111,42.3429844 158.650891,42.3429844 C163.381403,42.3429844 167.069599,46.2717149 167.069599,51.2026726 L167.069599,51.2828508 C167.069599,56.0935412 163.581849,60.0623608 158.731069,60.0623608 L158.731069,60.0623608 Z M178.419822,34.6458797 C178.419822,35.3273942 178.94098,35.8485523 179.622494,35.8485523 C180.304009,35.8485523 180.865256,35.3273942 180.865256,34.6458797 L180.865256,33.9643653 C180.865256,33.2828508 180.304009,32.7616927 179.622494,32.7616927 C178.94098,32.7616927 178.419822,33.2828508 178.419822,33.9643653 L178.419822,34.6458797 Z M178.660356,60.5835189 C178.660356,61.1848552 179.101336,61.5857461 179.662584,61.5857461 C180.223831,61.5857461 180.624722,61.1848552 180.624722,60.5835189 L180.624722,41.8218263 C180.624722,41.22049 180.183742,40.8195991 179.622494,40.8195991 C179.061247,40.8195991 178.660356,41.2605791 178.660356,41.8218263 L178.660356,60.5835189 Z M191.774499,60.5835189 C191.774499,61.1848552 192.215479,61.5857461 192.776726,61.5857461 C193.337973,61.5857461 193.738864,61.1848552 193.738864,60.5835189 L193.738864,33.0022272 C193.738864,32.44098 193.297884,32 192.736637,32 C192.17539,32 191.774499,32.44098 191.774499,33.0022272 L191.774499,60.5835189 Z M205.289532,50.2405345 C205.650334,45.7104677 208.777283,42.3028953 212.826281,42.3028953 C217.516704,42.3028953 219.88196,46.1113586 220.162584,50.2405345 L205.289532,50.2405345 Z M221.2049,58.5790646 C221.445434,58.3385301 221.525612,58.0979955 221.525612,57.8975501 C221.525612,57.376392 221.084633,56.9755011 220.563474,56.9755011 C220.282851,56.9755011 220.082405,57.0957684 219.922049,57.2561247 C218.278396,58.8596882 216.233853,60.0623608 213.30735,60.0623608 C209.298441,60.0623608 205.650334,57.0957684 205.289532,52.0044543 L221.325167,52.0044543 C221.806236,52.0044543 222.287305,51.5634744 222.287305,51.0824053 C222.287305,45.2293987 218.639198,40.4988864 212.906459,40.4988864 C207.374165,40.4988864 203.2049,45.2293987 203.2049,51.1625835 L203.2049,51.2427617 C203.2049,57.6169265 207.855234,61.9064588 213.227171,61.9064588 C216.915367,61.9064588 219.200445,60.5835189 221.2049,58.5790646 L221.2049,58.5790646 Z M231.152004,60.5835189 C231.152004,61.1848552 231.592984,61.5857461 232.154232,61.5857461 C232.715479,61.5857461 233.11637,61.1447661 233.11637,60.5835189 L233.11637,53.0467706 C233.11637,46.4721604 237.005011,43.2249443 241.334633,42.8240535 C241.976058,42.7839644 242.376949,42.3028953 242.376949,41.7416481 C242.376949,41.1403118 241.935969,40.6592428 241.334633,40.6592428 C238.448218,40.6592428 234.88029,42.8240535 233.11637,46.7928731 L233.11637,41.8218263 C233.11637,41.22049 232.67539,40.8195991 232.114143,40.8195991 C231.552895,40.8195991 231.152004,41.2605791 231.152004,41.8218263 L231.152004,60.5835189 Z M250.319599,66.9977728 C250.319599,67.5991091 250.760579,68 251.321826,68 C251.883073,68 252.283964,67.5991091 252.283964,66.9977728 L252.283964,57.0155902 C253.967706,59.5812918 256.613586,61.9064588 260.702673,61.9064588 C265.63363,61.9064588 270.644766,57.857461 270.644766,51.2026726 L270.644766,51.1224944 C270.644766,44.467706 265.63363,40.4988864 260.702673,40.4988864 C256.653675,40.4988864 254.047884,42.8641425 252.283964,45.5501114 L252.283964,41.8218263 C252.283964,41.22049 251.842984,40.8195991 251.281737,40.8195991 C250.72049,40.8195991 250.319599,41.22049 250.319599,41.8218263 L250.319599,66.9977728 Z M260.502227,60.0222717 C256.252784,60.0222717 252.163697,56.4944321 252.163697,51.2427617 L252.163697,51.1625835 C252.163697,45.9510022 256.252784,42.3830735 260.502227,42.3830735 C264.791759,42.3830735 268.520045,45.830735 268.520045,51.2026726 L268.520045,51.2828508 C268.520045,56.7750557 264.952116,60.0222717 260.502227,60.0222717 L260.502227,60.0222717 Z M280.19098,60.5835189 C280.19098,61.1848552 280.63196,61.5857461 281.193207,61.5857461 C281.754454,61.5857461 282.155345,61.1848552 282.155345,60.5835189 L282.155345,33.0022272 C282.155345,32.44098 281.714365,32 281.153118,32 C280.591871,32 280.19098,32.44098 280.19098,33.0022272 L280.19098,60.5835189 Z M299.238307,61.9064588 C303.126949,61.9064588 305.652561,59.9821826 307.055679,58.0178174 L307.055679,60.5835189 C307.055679,61.1848552 307.45657,61.5857461 308.017817,61.5857461 C308.579065,61.5857461 308.979955,61.1848552 308.979955,60.5835189 L308.979955,48.6770601 C308.979955,46.1514477 308.258352,44.2672606 306.895323,42.9042316 C305.412027,41.4209354 303.207127,40.6592428 300.44098,40.6592428 C297.835189,40.6592428 295.790646,41.2605791 293.706013,42.1826281 C293.505568,42.2628062 293.144766,42.5835189 293.144766,43.064588 C293.144766,43.545657 293.585746,43.986637 294.066815,43.986637 C294.187082,43.986637 294.347439,43.9465479 294.507795,43.8663697 C296.191537,43.064588 298.075724,42.5033408 300.320713,42.5033408 C304.530067,42.5033408 307.055679,44.6280624 307.055679,48.7572383 L307.055679,49.6391982 C305.091314,49.1180401 303.126949,48.7572383 300.280624,48.7572383 C294.988864,48.7572383 291.340757,51.1625835 291.340757,55.4120267 L291.340757,55.4922049 C291.340757,59.7416481 295.429844,61.9064588 299.238307,61.9064588 L299.238307,61.9064588 Z M299.358575,60.0623608 C296.231626,60.0623608 293.42539,58.3385301 293.42539,55.3719376 L293.42539,55.2917595 C293.42539,52.4454343 295.830735,50.5211581 300.160356,50.5211581 C303.08686,50.5211581 305.371938,51.0022272 307.095768,51.4432071 L307.095768,53.7683742 C307.095768,57.4966592 303.52784,60.0623608 299.358575,60.0623608 L299.358575,60.0623608 Z M325.782294,61.7861915 C326.944878,61.7861915 327.866927,61.545657 328.668708,61.2650334 C329.069599,61.1046771 329.310134,60.8240535 329.310134,60.4231626 C329.310134,59.9420935 328.869154,59.5412027 328.428174,59.5412027 C328.14755,59.5412027 327.506125,59.9420935 326.103007,59.9420935 C323.737751,59.9420935 322.01392,58.8997773 322.01392,55.9732739 L322.01392,42.7839644 L328.428174,42.7839644 C328.909243,42.7839644 329.350223,42.3830735 329.350223,41.9020045 C329.350223,41.4209354 328.909243,40.9799555 328.428174,40.9799555 L322.01392,40.9799555 L322.01392,35.2873051 C322.01392,34.7260579 321.57294,34.285078 321.011693,34.285078 C320.450445,34.285078 320.049555,34.7260579 320.049555,35.2873051 L320.049555,40.9799555 L317.844655,40.9799555 C317.363586,40.9799555 316.922606,41.3808463 316.922606,41.8619154 C316.922606,42.3429844 317.363586,42.7839644 317.844655,42.7839644 L320.049555,42.7839644 L320.049555,56.1737194 C320.049555,60.0623608 322.615256,61.7861915 325.782294,61.7861915 L325.782294,61.7861915 Z M338.816258,50.2405345 C339.17706,45.7104677 342.304009,42.3028953 346.353007,42.3028953 C351.04343,42.3028953 353.408686,46.1113586 353.68931,50.2405345 L338.816258,50.2405345 Z M354.731626,58.5790646 C354.97216,58.3385301 355.052339,58.0979955 355.052339,57.8975501 C355.052339,57.376392 354.611359,56.9755011 354.0902,56.9755011 C353.809577,56.9755011 353.609131,57.0957684 353.448775,57.2561247 C351.805122,58.8596882 349.760579,60.0623608 346.834076,60.0623608 C342.825167,60.0623608 339.17706,57.0957684 338.816258,52.0044543 L354.851893,52.0044543 C355.332962,52.0044543 355.814031,51.5634744 355.814031,51.0824053 C355.814031,45.2293987 352.165924,40.4988864 346.433185,40.4988864 C340.900891,40.4988864 336.731626,45.2293987 336.731626,51.1625835 L336.731626,51.2427617 C336.731626,57.6169265 341.38196,61.9064588 346.753898,61.9064588 C350.442094,61.9064588 352.727171,60.5835189 354.731626,58.5790646 L354.731626,58.5790646 Z" id="text" fill="#4A4A4A"></path>
                <g id="logo" fill="#333333">
                    <g id="plate">
                        <path d="M50,98.3333333 L50,98.3333333 C76.6937629,98.3333333 98.3333333,76.6937629 98.3333333,50 C98.3333333,23.3062371 76.6937629,1.66666667 50,1.66666667 C23.3062371,1.66666667 1.66666667,23.3062371 1.66666667,50 C1.66666667,76.6937629 23.3062371,98.3333333 50,98.3333333 L50,98.3333333 Z M50,100 L50,100 C22.3857625,100 0,77.6142375 0,50 C0,22.3857625 22.3857625,0 50,0 C77.6142375,0 100,22.3857625 100,50 C100,77.6142375 77.6142375,100 50,100 L50,100 Z" id="Oval-2"></path>
                        <path d="M50,81.6666667 L50,81.6666667 C67.4890171,81.6666667 81.6666667,67.4890171 81.6666667,50 C81.6666667,32.5109829 67.4890171,18.3333333 50,18.3333333 C32.5109829,18.3333333 18.3333333,32.5109829 18.3333333,50 C18.3333333,67.4890171 32.5109829,81.6666667 50,81.6666667 L50,81.6666667 Z M50,83.3333333 L50,83.3333333 C31.5905083,83.3333333 16.6666667,68.4094917 16.6666667,50 C16.6666667,31.5905083 31.5905083,16.6666667 50,16.6666667 C68.4094917,16.6666667 83.3333333,31.5905083 83.3333333,50 C83.3333333,68.4094917 68.4094917,83.3333333 50,83.3333333 L50,83.3333333 Z" id="Oval-1"></path>
                    </g>
                    <g id="kettle" transform="translate(31.666667, 31.111111)">
                        <path d="M29.5069444,31.4092593 L2.35034722,31.4092593 C1.95335648,31.4092593 1.61469907,31.1216435 1.55069444,30.7287037 C1.38217593,29.6900463 1.2962963,28.6384259 1.2962963,27.6013889 C1.2962963,18.2899306 7.86041667,10.7146991 15.9282407,10.7146991 C23.996875,10.7146991 30.5609954,18.2899306 30.5609954,27.6013889 C30.5609954,28.6303241 30.4759259,29.6819444 30.3074074,30.7270833 C30.2434028,31.1200231 29.9047454,31.4092593 29.5069444,31.4092593 L29.5069444,31.4092593 Z M3.05277778,29.7888889 L28.8045139,29.7888889 C28.8944444,29.0548611 28.940625,28.3216435 28.940625,27.6021991 C28.940625,19.1835648 23.1032407,12.3358796 15.9282407,12.3358796 C8.75324074,12.3358796 2.91666667,19.1835648 2.91666667,27.6013889 C2.91666667,28.3265046 2.96203704,29.058912 3.05277778,29.7888889 L3.05277778,29.7888889 Z" id="Shape"></path>
                        <path d="M25.6788194,16.7376157 C25.230787,16.7376157 24.8686343,16.3746528 24.8686343,15.9274306 C24.8686343,6.99027778 23.4054398,1.81643519 15.9282407,1.81643519 C8.50775463,1.81643519 6.98784722,7.45775463 6.98784722,15.9274306 C6.98784722,16.3746528 6.62488426,16.7376157 6.17766204,16.7376157 C5.73043981,16.7376157 5.36747685,16.3746528 5.36747685,15.9274306 C5.36747685,7.75671296 6.64675926,0.196064815 15.9282407,0.196064815 C25.6731481,0.196064815 26.4890046,8.31574074 26.4890046,15.9274306 C26.4890046,16.3746528 26.1268519,16.7376157 25.6788194,16.7376157 L25.6788194,16.7376157 Z" id="Shape"></path>
                        <path d="M15.9282407,12.4112269 C14.3313657,12.4112269 13.0326389,11.1125 13.0326389,9.515625 C13.0326389,7.91875 14.3321759,6.62002315 15.9282407,6.62002315 C17.5243056,6.62002315 18.8238426,7.91956019 18.8238426,9.515625 C18.8238426,11.1116898 17.5251157,12.4112269 15.9282407,12.4112269 L15.9282407,12.4112269 Z M15.9282407,8.24039352 C15.225,8.24039352 14.6530093,8.81238426 14.6530093,9.515625 C14.6530093,10.2188657 15.225,10.7908565 15.9282407,10.7908565 C16.6314815,10.7908565 17.2034722,10.2188657 17.2034722,9.515625 C17.2034722,8.81238426 16.6314815,8.24039352 15.9282407,8.24039352 L15.9282407,8.24039352 Z" id="Shape"></path>
                        <path d="M31.0462963,35.4520833 L0.810185185,35.4520833 C0.362962963,35.4520833 0,35.0899306 0,34.6418981 C0,34.1938657 0.362962963,33.831713 0.810185185,33.831713 L31.0462963,33.831713 C31.4943287,33.831713 31.8564815,34.1938657 31.8564815,34.6418981 C31.8564815,35.0899306 31.4943287,35.4520833 31.0462963,35.4520833 L31.0462963,35.4520833 Z" id="Shape"></path>
                        <path d="M30.1648148,29.5012731 C29.8715278,29.5012731 29.6835648,29.4810185 29.6552083,29.4777778 C29.2112269,29.4259259 28.8936343,29.0224537 28.9454861,28.5784722 C28.9965278,28.1361111 29.3821759,27.8087963 29.8415509,27.86875 C29.8642361,27.8671296 31.8418981,28.0664352 33.0993056,26.7887731 C34.072338,25.799537 34.4215278,24.1540509 34.1371528,21.8993056 C33.6607639,18.1141204 35.6603009,15.9241898 37.1729167,15.0459491 L36.9582176,13.8428241 C35.7097222,14.5298611 33.55625,16.065162 33.1981481,18.6099537 C32.5337963,23.3511574 29.3149306,23.6168981 29.1780093,23.6258102 C28.734838,23.6428241 28.3467593,23.3171296 28.3167824,22.8699074 C28.2876157,22.4234954 28.625463,22.0378472 29.0726852,22.0086806 C29.1439815,22.0013889 31.1200231,21.7664352 31.5939815,18.383912 C32.2364583,13.8136574 37.0813657,11.9696759 37.2871528,11.8935185 C37.5131944,11.8108796 37.7627315,11.8303241 37.9717593,11.9502315 C38.1799769,12.0693287 38.325,12.2743056 38.3663194,12.5108796 L38.8743056,15.3611111 C38.9423611,15.7427083 38.7309028,16.1186343 38.3695602,16.2587963 C38.2456019,16.3090278 35.2252315,17.5721065 35.7445602,21.6967593 C36.0953704,24.4797454 35.5890046,26.5789352 34.2400463,27.9392361 C32.8732639,29.3181713 31.0438657,29.5012731 30.1648148,29.5012731 L30.1648148,29.5012731 Z" id="Shape"></path>
                    </g>
                </g>
            </g>
        </g>
    </g>
</svg>