<?xml version="1.0" encoding="UTF-8" standalone="no"?>
<svg width="100px" height="100px" viewBox="0 0 100 100" version="1.1" xmlns="http://www.w3.org/2000/svg" xmlns:xlink="http://www.w3.org/1999/xlink">
    <!-- Generator: Sketch 3.7 (28169) - http://www.bohemiancoding.com/sketch -->
    <title>logo</title>
    <desc>Created with Sketch.</desc>
    <defs></defs>
    <g id="logo" stroke="none" stroke-width="1" fill="none" fill-rule="evenodd">
        <g fill="#333333">
            <g>
                <g id="plate">
                    <path d="M50,98.3333333 L50,98.3333333 C76.6937629,98.3333333 98.3333333,76.6937629 98.3333333,50 C98.3333333,23.3062371 76.6937629,1.66666667 50,1.66666667 C23.3062371,1.66666667 1.66666667,23.3062371 1.66666667,50 C1.66666667,76.6937629 23.3062371,98.3333333 50,98.3333333 L50,98.3333333 Z M50,100 L50,100 C22.3857625,100 0,77.6142375 0,50 C0,22.3857625 22.3857625,0 50,0 C77.6142375,0 100,22.3857625 100,50 C100,77.6142375 77.6142375,100 50,100 L50,100 Z" id="Oval-2"></path>
                    <path d="M50,81.6666667 L50,81.6666667 C67.4890171,81.6666667 81.6666667,67.4890171 81.6666667,50 C81.6666667,32.5109829 67.4890171,18.3333333 50,18.3333333 C32.5109829,18.3333333 18.3333333,32.5109829 18.3333333,50 C18.3333333,67.4890171 32.5109829,81.6666667 50,81.6666667 L50,81.6666667 Z M50,83.3333333 L50,83.3333333 C31.5905083,83.3333333 16.6666667,68.4094917 16.6666667,50 C16.6666667,31.5905083 31.5905083,16.6666667 50,16.6666667 C68.4094917,16.6666667 83.3333333,31.5905083 83.3333333,50 C83.3333333,68.4094917 68.4094917,83.3333333 50,83.3333333 L50,83.3333333 Z" id="Oval-1"></path>
                </g>
                <g id="kettle" transform="translate(31.666667, 31.111111)">
                    <path d="M29.5069444,31.4092593 L2.35034722,31.4092593 C1.95335648,31.4092593 1.61469907,31.1216435 1.55069444,30.7287037 C1.38217593,29.6900463 1.2962963,28.6384259 1.2962963,27.6013889 C1.2962963,18.2899306 7.86041667,10.7146991 15.9282407,10.7146991 C23.996875,10.7146991 30.5609954,18.2899306 30.5609954,27.6013889 C30.5609954,28.6303241 30.4759259,29.6819444 30.3074074,30.7270833 C30.2434028,31.1200231 29.9047454,31.4092593 29.5069444,31.4092593 L29.5069444,31.4092593 Z M3.05277778,29.7888889 L28.8045139,29.7888889 C28.8944444,29.0548611 28.940625,28.3216435 28.940625,27.6021991 C28.940625,19.1835648 23.1032407,12.3358796 15.9282407,12.3358796 C8.75324074,12.3358796 2.91666667,19.1835648 2.91666667,27.6013889 C2.91666667,28.3265046 2.96203704,29.058912 3.05277778,29.7888889 L3.05277778,29.7888889 Z" id="Shape"></path>
                    <path d="M25.6788194,16.7376157 C25.230787,16.7376157 24.8686343,16.3746528 24.8686343,15.9274306 C24.8686343,6.99027778 23.4054398,1.81643519 15.9282407,1.81643519 C8.50775463,1.81643519 6.98784722,7.45775463 6.98784722,15.9274306 C6.98784722,16.3746528 6.62488426,16.7376157 6.17766204,16.7376157 C5.73043981,16.7376157 5.36747685,16.3746528 5.36747685,15.9274306 C5.36747685,7.75671296 6.64675926,0.196064815 15.9282407,0.196064815 C25.6731481,0.196064815 26.4890046,8.31574074 26.4890046,15.9274306 C26.4890046,16.3746528 26.1268519,16.7376157 25.6788194,16.7376157 L25.6788194,16.7376157 Z" id="Shape"></path>
                    <path d="M15.9282407,12.4112269 C14.3313657,12.4112269 13.0326389,11.1125 13.0326389,9.515625 C13.0326389,7.91875 14.3321759,6.62002315 15.9282407,6.62002315 C17.5243056,6.62002315 18.8238426,7.91956019 18.8238426,9.515625 C18.8238426,11.1116898 17.5251157,12.4112269 15.9282407,12.4112269 L15.9282407,12.4112269 Z M15.9282407,8.24039352 C15.225,8.24039352 14.6530093,8.81238426 14.6530093,9.515625 C14.6530093,10.2188657 15.225,10.7908565 15.9282407,10.7908565 C16.6314815,10.7908565 17.2034722,10.2188657 17.2034722,9.515625 C17.2034722,8.81238426 16.6314815,8.24039352 15.9282407,8.24039352 L15.9282407,8.24039352 Z" id="Shape"></path>
                    <path d="M31.0462963,35.4520833 L0.810185185,35.4520833 C0.362962963,35.4520833 0,35.0899306 0,34.6418981 C0,34.1938657 0.362962963,33.831713 0.810185185,33.831713 L31.0462963,33.831713 C31.4943287,33.831713 31.8564815,34.1938657 31.8564815,34.6418981 C31.8564815,35.0899306 31.4943287,35.4520833 31.0462963,35.4520833 L31.0462963,35.4520833 Z" id="Shape"></path>
                    <path d="M30.1648148,29.5012731 C29.8715278,29.5012731 29.6835648,29.4810185 29.6552083,29.4777778 C29.2112269,29.4259259 28.8936343,29.0224537 28.9454861,28.5784722 C28.9965278,28.1361111 29.3821759,27.8087963 29.8415509,27.86875 C29.8642361,27.8671296 31.8418981,28.0664352 33.0993056,26.7887731 C34.072338,25.799537 34.4215278,24.1540509 34.1371528,21.8993056 C33.6607639,18.1141204 35.6603009,15.9241898 37.1729167,15.0459491 L36.9582176,13.8428241 C35.7097222,14.5298611 33.55625,16.065162 33.1981481,18.6099537 C32.5337963,23.3511574 29.3149306,23.6168981 29.1780093,23.6258102 C28.734838,23.6428241 28.3467593,23.3171296 28.3167824,22.8699074 C28.2876157,22.4234954 28.625463,22.0378472 29.0726852,22.0086806 C29.1439815,22.0013889 31.1200231,21.7664352 31.5939815,18.383912 C32.2364583,13.8136574 37.0813657,11.9696759 37.2871528,11.8935185 C37.5131944,11.8108796 37.7627315,11.8303241 37.9717593,11.9502315 C38.1799769,12.0693287 38.325,12.2743056 38.3663194,12.5108796 L38.8743056,15.3611111 C38.9423611,15.7427083 38.7309028,16.1186343 38.3695602,16.2587963 C38.2456019,16.3090278 35.2252315,17.5721065 35.7445602,21.6967593 C36.0953704,24.4797454 35.5890046,26.5789352 34.2400463,27.9392361 C32.8732639,29.3181713 31.0438657,29.5012731 30.1648148,29.5012731 L30.1648148,29.5012731 Z" id="Shape"></path>
                </g>
            </g>
        </g>
    </g>
</svg>